<svg xmlns="http://www.w3.org/2000/svg" width="16" height="16" viewBox="0 0 16 16">
    <path fill="#FFF" fill-rule="evenodd" d="M8 0C3.581 0 0 3.672 0 8.203c0 3.624 2.292 6.698 5.471 7.782.4.076.546-.177.546-.395 0-.194-.007-.71-.01-1.395-2.226.496-2.695-1.1-2.695-1.1-.364-.947-.889-1.2-.889-1.2-.726-.508.055-.498.055-.498.803.058 1.225.846 1.225.846.714 1.253 1.873.89 2.329.68.073-.529.28-.89.508-1.095-1.777-.207-3.644-.911-3.644-4.054 0-.896.311-1.628.823-2.201-.082-.208-.357-1.042.079-2.171 0 0 .671-.22 2.2.84A7.485 7.485 0 0 1 8 3.967c.68.004 1.364.095 2.003.277 1.527-1.062 2.198-.841 2.198-.841.436 1.129.162 1.963.08 2.17.513.574.822 1.306.822 2.202 0 3.15-1.87 3.844-3.653 4.047.287.253.543.754.543 1.52 0 1.096-.01 1.98-.01 2.25 0 .219.145.474.55.394C13.71 14.898 16 11.825 16 8.203 16 3.673 12.418 0 8 0"/>
</svg>
