<?xml version="1.0" encoding="UTF-8"?>
<svg width="26px" height="26px" viewBox="0 0 26 26" version="1.1" xmlns="http://www.w3.org/2000/svg" xmlns:xlink="http://www.w3.org/1999/xlink">
    <!-- Generator: Sketch 48.1 (47250) - http://www.bohemiancoding.com/sketch -->
    <title>github@1x</title>
    <desc>Created with Sketch.</desc>
    <defs></defs>
    <g id="组件" stroke="none" stroke-width="1" fill="none" fill-rule="evenodd" transform="translate(-78.000000, -82.000000)">
        <g id="github" transform="translate(77.000000, 81.000000)">
            <circle id="Oval-3" cx="14" cy="14" r="14"></circle>
            <path d="M14,27 C6.82029825,27 1,21.1797017 1,14 C1,6.82029825 6.82029825,1 14,1 C21.1797017,1 27,6.82029825 27,14 C27,21.1797017 21.1797017,27 14,27 Z M4.23581659,20.9273856 C5.72636098,22.9873874 7.65797463,24.4296374 10.0306576,25.2541357 C10.1245659,25.2695608 10.2027395,25.2772734 10.2651785,25.2772734 C10.3276176,25.2772734 10.378318,25.2655801 10.41728,25.2421936 C10.456242,25.2188072 10.4874615,25.1954207 10.5109385,25.1720342 C10.5344156,25.1486477 10.5501502,25.109836 10.5581424,25.0555993 C10.5661346,25.0013625 10.5701307,24.9625509 10.5701307,24.9391644 L10.5701307,22.5947929 C9.99269463,22.656991 9.4774478,22.6530103 9.02439024,22.5828508 C8.57133268,22.5126913 8.21617951,22.4037202 7.95893073,22.2559375 C7.70168195,22.1081548 7.47540293,21.9255411 7.28009366,21.7080964 C7.08478439,21.4906518 6.9521639,21.2923642 6.8822322,21.1132336 C6.81230049,20.934103 6.74211902,20.7475087 6.6716878,20.5534505 C6.60125659,20.3593924 6.55829854,20.2466894 6.54281366,20.2153416 C6.40245073,19.9819742 6.19165659,19.7682615 5.91043122,19.5742033 C5.62920585,19.3801452 5.41841171,19.2246499 5.27804878,19.1077174 C5.13768585,18.990785 5.12195122,18.878082 5.23084488,18.7696084 C6.01158244,18.3650719 6.89347122,18.8783308 7.87651122,20.3093851 C8.40749268,21.1025355 9.33633561,21.3359029 10.66304,21.0094872 C10.8193873,20.3720808 11.1315824,19.8277229 11.5996254,19.3764133 C9.78889366,19.0499976 8.44645463,18.3812434 7.57230829,17.3701507 C6.69816195,16.3590581 6.26108878,15.1305208 6.26108878,13.6845389 C6.26108878,12.3316054 6.69041951,11.1575537 7.54908098,10.1623837 C7.20541659,9.15178868 7.25237073,8.08670807 7.68994341,6.9671419 C8.14250146,6.93579405 8.6497561,7.02511055 9.21170732,7.2350914 C9.77365854,7.44507226 10.1677737,7.62395405 10.3940527,7.77173679 C10.6203317,7.91951952 10.8193873,8.05560901 10.9912195,8.18000525 C11.8808507,7.93121277 12.8838712,7.80681653 14.000281,7.80681653 C15.1166907,7.80681653 16.1274537,7.93121277 17.0325698,8.18000525 C17.2353717,8.04018387 17.4616507,7.89240114 17.7114068,7.73665705 C17.9611629,7.58091295 18.3435395,7.4137244 18.8585366,7.2350914 C19.3735337,7.0564584 19.8495688,6.98256703 20.286642,7.0134173 C20.7082302,8.11755834 20.7629268,9.16721382 20.4507317,10.1623837 C21.324878,11.1575537 21.7619512,12.3316054 21.7619512,13.6845389 C21.7619512,15.1305208 21.3171356,16.36279 20.4275044,17.3813464 C19.5378732,18.3999028 18.1954341,19.0646763 16.4001873,19.3756669 C17.0715317,20.0444211 17.4072039,20.8529967 17.4072039,21.8013936 L17.4072039,24.8100411 C17.4072039,24.8254662 17.391719,24.8488527 17.4072039,24.8802006 C17.4072039,24.9737466 17.4112,25.0436572 17.4191922,25.0899327 C17.4271844,25.1362081 17.4624,25.182981 17.524839,25.2302516 C17.587278,25.2775222 17.7041639,25.3009087 17.829042,25.3004111 C20.2172098,24.4918355 22.1723005,23.0495855 23.6943141,20.973661 C25.2163278,18.8977366 25.9773346,16.5613264 25.9773346,13.9644304 C25.9773346,12.3472793 25.6611434,10.8000389 25.028761,9.32270912 C24.3963785,7.84537936 23.5457093,6.57429857 22.4767532,5.50946675 C21.4077971,4.44463493 20.1317932,3.59724773 18.6487415,2.96730517 C17.1656898,2.33736261 15.6124566,2.02239132 13.989042,2.02239132 C12.3656273,2.02239132 10.8123941,2.33736261 9.32934244,2.96730517 C7.84629073,3.59724773 6.57028683,4.44463493 5.50133073,5.50946675 C4.43237463,6.57429857 3.58170537,7.84537936 2.94932293,9.32270912 C2.31694049,10.8000389 2.00074927,12.3472793 2.00074927,13.9644304 C2,16.5466476 2.7452722,18.8673839 4.23581659,20.9273856 Z" id="Combined-Shape" fill="#FFFFFF"></path>
        </g>
    </g>
</svg>
