<?xml version="1.0" encoding="UTF-8"?>
<svg width="85px" height="12px" viewBox="0 0 85 12" version="1.1" xmlns="http://www.w3.org/2000/svg" xmlns:xlink="http://www.w3.org/1999/xlink">
    <!-- Generator: Sketch 48.1 (47250) - http://www.bohemiancoding.com/sketch -->
    <title>logo-new-m</title>
    <desc>Created with Sketch.</desc>
    <defs></defs>
    <g stroke="none" stroke-width="1" fill="none" fill-rule="evenodd" transform="translate(-16.000000, -88.000000)">
        <g id="logo-new-m" transform="translate(16.000000, 88.000000)">
            <path d="M44.069219,5.47306 L46.6305395,5.47306 C46.8690384,5.47306 47.0772212,5.42626 47.2560474,5.33326 C47.4348736,5.24026 47.5812731,5.11346 47.695246,4.95306 C47.8094108,4.79266 47.8938352,4.60926 47.9485192,4.40186 C48.0030113,4.19506 48.0304492,3.98286 48.0304492,3.76546 C48.0304492,3.53806 48.0030113,3.32066 47.9485192,3.11366 C47.8938352,2.90666 47.8094108,2.72566 47.695246,2.57046 C47.5812731,2.41526 47.4348736,2.29086 47.2560474,2.19786 C47.0772212,2.10446 46.8690384,2.05806 46.6305395,2.05806 L44.069219,2.05806 L44.069219,5.47306 Z M46.6305395,0.02466 C47.1568488,0.02466 47.6207991,0.11766 48.0229661,0.30406 C48.4249413,0.49046 48.7601445,0.74906 49.0281919,1.08006 C49.2962393,1.41146 49.4994334,1.79946 49.6385418,2.24426 C49.777842,2.68926 49.8473002,3.16546 49.8473002,3.67246 C49.8473002,4.16906 49.782447,4.64266 49.6536998,5.09266 C49.5245688,5.54286 49.3259797,5.93606 49.0579323,6.27246 C48.7900767,6.60866 48.4548736,6.87786 48.0527065,7.07966 C47.6505395,7.28126 47.1766117,7.38226 46.6305395,7.38226 L44.069219,7.38226 L44.069219,11.90966 L42.1186321,11.90966 L42.1186321,0.02466 L46.6305395,0.02466 Z" id="Fill-1" fill="#5628B4"></path>
            <polygon id="Fill-37" fill="#5628B4" points="50.9043702 6.9779 50.9043702 0.0247 52.8549571 0.0247 52.8549571 7.9775"></polygon>
            <polygon id="Fill-64" fill="#5628B4" points="62.0281456 0.02472 62.0281456 2.05792 58.8860237 2.05792 58.8860237 11.90912 56.9202788 11.90912 56.9202788 2.05792 53.793123 2.05792 53.793123 0.02472"></polygon>
            <path d="M64.9168984,5.31784 L67.2698442,5.31784 C67.7760068,5.31784 68.1432528,5.15744 68.3717743,4.83644 C68.6001038,4.51584 68.7144605,4.13804 68.7144605,3.70344 C68.7144605,3.47584 68.6868307,3.26364 68.6323386,3.06684 C68.5778465,2.87064 68.4911196,2.69724 68.3717743,2.54684 C68.2526208,2.39724 68.1012325,2.27804 67.9176095,2.19004 C67.7336027,2.10224 67.5179368,2.05804 67.2698442,2.05804 L64.9168984,2.05804 L64.9168984,5.31784 Z M67.5678239,0.02464 C68.1037269,0.02464 68.5655666,0.11784 68.9525756,0.30404 C69.3395847,0.49044 69.662316,0.74124 69.9205779,1.05684 C70.178456,1.37264 70.3695621,1.73744 70.4938962,2.15124 C70.6178465,2.56524 70.6800135,2.99484 70.6800135,3.43944 C70.6800135,4.10204 70.5458939,4.71504 70.2780384,5.27884 C70.009991,5.84304 69.5828804,6.26464 68.9972822,6.54384 L71.6973273,11.90804 L69.5088172,11.90964 L67.1059842,6.83884 L64.9168984,6.83884 L64.9168984,11.90964 L62.9663115,11.90964 L62.9663115,0.02464 L67.5678239,0.02464 Z" id="Fill-87" fill="#5628B4"></path>
            <polygon id="Fill-116" fill="#5628B4" points="84.7971512 0.02472 81.1786072 5.82992 84.9067111 11.90932 82.7040023 11.90932 79.9128172 7.35112 77.1220158 11.90892 75.1416885 11.90892 78.9001084 5.69012 75.4452325 0.02472 77.6343183 0.02472 80.1658984 4.16912 82.8314063 0.02472"></polygon>
            <polygon id="Combined-Shape" fill="#5628B4" points="74.388623 0.02458 74.388623 11.90798 72.4380361 11.90978 72.4378442 0.02478"></polygon>
            <polygon id="Fill-162" fill="#F7B236" points="52.8550147 10.06328 52.8550147 11.90968 50.9044278 11.90928 50.9044278 9.06408"></polygon>
            <path d="M5.10984312,1.15996 C4.49488826,1.15996 3.94094921,1.28736 3.44802596,1.54156 C2.95529458,1.79576 2.54027201,2.14196 2.20353386,2.57936 C1.86679571,3.01676 1.60795824,3.52796 1.42740519,4.11296 C1.24685214,4.69836 1.15667156,5.32116 1.15667156,5.98236 C1.15667156,6.64416 1.24685214,7.26976 1.42740519,7.85936 C1.60795824,8.44996 1.86909819,8.96376 2.21082506,9.40096 C2.55236005,9.83876 2.96699887,10.18456 3.45531716,10.43876 C3.94325169,10.69316 4.49987698,10.82036 5.12442551,10.82036 C5.73938036,10.82036 6.29063318,10.69316 6.77895147,10.43876 C7.26669413,10.18456 7.68401919,9.84116 8.03073476,9.40856 C8.37687472,8.97636 8.6407009,8.46796 8.82125395,7.88256 C9.001807,7.29756 9.09237133,6.66916 9.09237133,5.99796 C9.09237133,5.32616 9.001807,4.69836 8.82125395,4.11296 C8.6407009,3.52796 8.37687472,3.01676 8.03073476,2.57936 C7.68401919,2.14196 7.26458352,1.79576 6.77166027,1.54156 C6.27835327,1.28736 5.72479797,1.15996 5.10984312,1.15996 M5.10984312,-4e-05 C5.93931264,-4e-05 6.67399661,0.16796 7.31331941,0.50376 C7.95245034,0.83956 8.48950451,1.28736 8.92390632,1.84676 C9.35811625,2.40636 9.68756321,3.04736 9.9120553,3.76956 C10.1365474,4.49216 10.2486016,5.23476 10.2486016,5.99796 C10.2486016,6.76076 10.1365474,7.50096 9.9120553,8.21836 C9.68756321,8.93536 9.35811625,9.57416 8.92390632,10.13356 C8.48950451,10.69316 7.95245034,11.14076 7.31331941,11.47656 C6.67399661,11.81256 5.93931264,11.98036 5.10984312,11.98036 C4.27039616,11.98036 3.53321783,11.81016 2.89907562,11.46896 C2.26416591,11.12796 1.7324842,10.67796 1.30287923,10.11856 C0.87346614,9.55896 0.549007901,8.91796 0.329504515,8.19536 C0.110001129,7.47316 5.75620768e-05,6.73576 5.75620768e-05,5.98236 C5.75620768e-05,5.21956 0.112303612,4.47716 0.336795711,3.75436 C0.56128781,3.03216 0.890734763,2.39356 1.32513657,1.83916 C1.75915463,1.28456 2.29352257,0.83956 2.92804853,0.50376 C3.56257449,0.16796 4.2897754,-4e-05 5.10984312,-4e-05" id="Fill-164" fill="#5628B4"></path>
            <path d="M13.3672765,6.0437 L16.7053014,6.0437 C17.0370508,6.0437 17.3227506,5.9749 17.5620169,5.8375 C17.8010914,5.7003 17.9987212,5.5225 18.1549063,5.3035 C18.3110914,5.0847 18.4283262,4.8329 18.5064187,4.5479 C18.5843194,4.2633 18.6232698,3.9681 18.6232698,3.6629 C18.6232698,3.3677 18.5843194,3.0779 18.5064187,2.7931 C18.4283262,2.5081 18.3110914,2.2563 18.1549063,2.0373 C17.9987212,1.8189 17.7984052,1.6435 17.5547257,1.5109 C17.3104707,1.3789 17.0226603,1.3123 16.6909108,1.3123 L13.3672765,1.3123 L13.3672765,6.0437 Z M16.7053014,0.1527 C17.2032133,0.1527 17.6399176,0.2467 18.0159898,0.4349 C18.3916783,0.6235 18.7038567,0.8775 18.9527167,1.1981 C19.2017686,1.5185 19.389421,1.8873 19.5166332,2.3043 C19.6434616,2.7219 19.7067799,3.1643 19.7067799,3.6323 C19.7067799,4.0799 19.6457641,4.5149 19.5239244,4.9371 C19.4017009,5.3593 19.2188454,5.7333 18.974974,6.0589 C18.7305271,6.3847 18.4183488,6.6441 18.0376716,6.8371 C17.6571862,7.0305 17.212807,7.1273 16.7053014,7.1273 L13.3672765,7.1273 L13.3672765,11.8275 L12.1960801,11.8275 L12.1960801,0.1527 L16.7053014,0.1527 Z" id="Fill-167" fill="#5628B4"></path>
            <polygon id="Fill-169" fill="#5628B4" points="28.6085824 0.1528 28.6085824 1.3124 22.5912348 1.3124 22.5912348 5.2804 28.5502528 5.2804 28.5502528 6.3946 22.5912348 6.3946 22.5912348 10.6676 28.6379391 10.6676 28.6379391 11.8276 21.4346208 11.8276 21.4346208 0.1528"></polygon>
            <polygon id="Fill-171" fill="#5628B4" points="38.5354503 3.89752 38.5354503 3.89752 38.5354503 0.15272 39.6627077 0.15272 39.6627077 11.98032 38.519333 11.97912 38.5354503 5.03832 31.8298521 1.74452 31.8298521 11.82752 30.7025948 11.82752 30.7025948 -8.00000001e-05"></polygon>
        </g>
    </g>
</svg>