<svg xmlns="http://www.w3.org/2000/svg" width="149" height="20" viewBox="0 0 149 20">
    <g fill="none" fill-rule="evenodd">
        <path fill="#5628B4" d="M76.905 9.122h4.47c.416 0 .78-.078 1.091-.233.313-.155.568-.367.767-.634.2-.267.346-.573.442-.919a4.072 4.072 0 0 0 0-2.147 2.603 2.603 0 0 0-.442-.905 2.165 2.165 0 0 0-.767-.62 2.415 2.415 0 0 0-1.091-.234h-4.47v5.692zm4.47-9.08c.918 0 1.728.154 2.43.465A4.82 4.82 0 0 1 85.559 1.8a5.719 5.719 0 0 1 1.065 1.94c.243.742.364 1.536.364 2.38 0 .828-.113 1.618-.337 2.368a5.498 5.498 0 0 1-1.04 1.966 5.143 5.143 0 0 1-1.754 1.345c-.702.336-1.53.505-2.482.505h-4.47v7.545h-3.404V.041h7.874zM88.833 11.63V.04h3.404v13.255zM108.245.041V3.43h-5.483v16.419h-3.43V3.429h-5.458V.042zM113.286 8.863h4.106c.884 0 1.525-.267 1.923-.802.399-.535.598-1.164.598-1.889 0-.379-.048-.733-.143-1.06a2.378 2.378 0 0 0-.455-.867 2.214 2.214 0 0 0-.792-.595c-.321-.146-.698-.22-1.13-.22h-4.107v5.433zm4.626-8.822c.936 0 1.742.155 2.417.466.675.31 1.239.728 1.69 1.254.45.527.783 1.135 1 1.824.216.69.325 1.406.325 2.147a6.787 6.787 0 0 1-.702 3.066c-.468.94-1.213 1.643-2.235 2.108l4.712 8.94-3.82.003-4.192-8.45h-3.82v8.45h-3.405V.041h8.03zM147.98.041l-6.315 9.676 6.506 10.132h-3.844l-4.871-7.597-4.87 7.596h-3.456l6.558-10.364L131.66.04h3.82l4.418 6.908L144.55.04zM129.815.041v19.806l-3.404.003V.04z"/>
        <path fill="#F7B236" d="M92.237 16.772v3.077h-3.404v-4.742z"/>
        <path fill="#5628B4" d="M8.917 1.933c-1.073 0-2.04.213-2.9.636-.86.424-1.584 1-2.172 1.73-.587.729-1.039 1.58-1.354 2.556a10.075 10.075 0 0 0-.472 3.116c0 1.103.157 2.145.472 3.128.315.984.77 1.84 1.367 2.57a6.515 6.515 0 0 0 2.172 1.729c.851.424 1.823.636 2.913.636 1.073 0 2.035-.212 2.887-.636a6.742 6.742 0 0 0 2.184-1.717c.604-.72 1.065-1.568 1.38-2.543.315-.975.473-2.023.473-3.141 0-1.12-.158-2.166-.473-3.142a7.644 7.644 0 0 0-1.38-2.556 6.628 6.628 0 0 0-2.197-1.73c-.86-.423-1.827-.636-2.9-.636m0-1.933c1.448 0 2.73.28 3.845.84a8.466 8.466 0 0 1 2.811 2.238 9.878 9.878 0 0 1 1.725 3.205 11.93 11.93 0 0 1 .587 3.714 11.81 11.81 0 0 1-.587 3.7 9.901 9.901 0 0 1-1.725 3.192 8.462 8.462 0 0 1-2.81 2.239c-1.116.56-2.398.84-3.846.84-1.465 0-2.751-.284-3.858-.853a8.505 8.505 0 0 1-2.785-2.25 9.811 9.811 0 0 1-1.699-3.206 12.09 12.09 0 0 1 .013-7.402 9.722 9.722 0 0 1 1.724-3.192A8.558 8.558 0 0 1 5.11.84C6.217.28 7.486 0 8.917 0M23.327 10.073h5.825c.58 0 1.078-.115 1.495-.344a3.177 3.177 0 0 0 1.035-.89c.273-.364.477-.784.614-1.26a5.329 5.329 0 0 0 0-2.924 3.864 3.864 0 0 0-.614-1.26 3.035 3.035 0 0 0-1.047-.877c-.427-.22-.929-.33-1.508-.33h-5.8v7.885zM29.152.254c.87 0 1.631.157 2.288.47.655.315 1.2.738 1.634 1.273.435.534.762 1.149.984 1.843.222.697.332 1.434.332 2.214 0 .746-.106 1.47-.319 2.175a5.655 5.655 0 0 1-.958 1.87 4.582 4.582 0 0 1-1.635 1.296c-.664.322-1.44.484-2.326.484h-5.825v7.833h-2.044V.255h7.87zM49.925.255v1.932H39.424v6.614h10.399v1.857h-10.4v7.121h10.553v1.934h-12.57V.255zM67.248 6.496V.255h1.967v19.712l-1.995-.002.028-11.568-11.702-5.49v16.806H53.58V0z"/>
    </g>
</svg>
