<svg xmlns="http://www.w3.org/2000/svg" xmlns:xlink="http://www.w3.org/1999/xlink" width="275" height="231" viewBox="0 0 275 231">
    <defs>
        <linearGradient id="a" x1="50%" x2="50%" y1="9.274%" y2="117.741%">
            <stop offset="0%" stop-color="#FCD966" stop-opacity="0"/>
            <stop offset="100%" stop-color="#F7B236"/>
        </linearGradient>
        <linearGradient id="b" x1="50%" x2="50%" y1="254.867%" y2="7.696%">
            <stop offset="0%" stop-color="#343945"/>
            <stop offset="100%" stop-color="#343945" stop-opacity="0"/>
        </linearGradient>
        <rect id="d" width="178" height="140" y="68" rx="4"/>
        <filter id="c" width="115.7%" x="-7.9%" y="-7.1%" filterUnits="objectBoundingBox">
            <feOffset dy="1" in="SourceAlpha" result="shadowOffsetOuter1"/>
            <feGaussianBlur in="shadowOffsetOuter1" result="shadowBlurOuter1" stdDeviation="2"/>
            <feComposite in="shadowBlurOuter1" in2="SourceAlpha" operator="out" result="shadowBlurOuter1"/>
            <feColorMatrix in="shadowBlurOuter1" result="shadowMatrixOuter1" values="0 0 0 0 0.28627451 0 0 0 0 0.129411765 0 0 0 0 0.678431373 0 0 0 0.06 0"/>
            <feOffset dy="4" in="SourceAlpha" result="shadowOffsetOuter2"/>
            <feGaussianBlur in="shadowOffsetOuter2" result="shadowBlurOuter2" stdDeviation="4"/>
            <feComposite in="shadowBlurOuter2" in2="SourceAlpha" operator="out" result="shadowBlurOuter2"/>
            <feColorMatrix in="shadowBlurOuter2" result="shadowMatrixOuter2" values="0 0 0 0 0.137254902 0 0 0 0 0.137254902 0 0 0 0 0.141176471 0 0 0 0.04 0"/>
            <feMerge>
                <feMergeNode in="shadowMatrixOuter1"/>
                <feMergeNode in="shadowMatrixOuter2"/>
            </feMerge>
        </filter>
    </defs>
    <g fill="none" fill-rule="evenodd">
        <path fill="url(#a)" fill-rule="nonzero" d="M193.126 166.5H254L137.5 255 21 166.5h60.874V0h111.252v166.5z" transform="translate(8 -24)"/>
        <path fill="url(#b)" fill-rule="nonzero" d="M224.676 192.876H267L186 255l-81-62.124h42.324V76h77.352v116.876z" transform="translate(8 -24)"/>
        <g transform="translate(8 -24)">
            <use fill="#000" filter="url(#c)" xlink:href="#d"/>
            <rect width="177" height="139" x=".5" y="68.5" fill="#FFF" stroke="#FABF3A" stroke-linejoin="square" rx="4"/>
        </g>
        <path fill="#EFF0F5" fill-rule="nonzero" d="M67 97h29v19H67zM101 97h29v19h-29zM135 97h29v19h-29zM67 121h29v19H67zM101 121h29v19h-29zM135 121h29v19h-29zM67 145h29v19H67zM101 145h29v19h-29zM135 145h29v19h-29z"/>
        <path fill="#474E5D" d="M12 45h170a3 3 0 0 1 3 3v13H9V48a3 3 0 0 1 3-3z"/>
        <path fill="#343945" fill-rule="nonzero" d="M9 61h176v24H9z"/>
        <path fill="#EFF0F5" fill-rule="nonzero" d="M30 97h31v67H30z"/>
    </g>
</svg>
