<svg xmlns="http://www.w3.org/2000/svg" width="114" height="16" viewBox="0 0 114 16">
    <g fill="none" fill-rule="evenodd" opacity=".5">
        <path fill="#FFF" d="M107.581 5.939l3.72-5.68H114L108.93 8l5.07 7.742h-2.7l-3.719-5.68-3.72 5.68h-2.699L106.232 8l-5.07-7.742h2.7l3.72 5.68zM90.294 9.544c-.065.003-.13.004-.196.004h-3.057v6.194h-2.568V.258h5.625a4.645 4.645 0 0 1 2.46 8.586l3.69 6.924H93.61l-3.316-6.224zM79.08 2.822v12.92h-2.567V2.822h-4.265V.254h11.097v2.568H79.08zm7.96.017v4.387h2.941a2.193 2.193 0 0 0 0-4.387h-2.941zm9.756-2.58h2.568v15.483h-2.568V.258zM6.932 14.194c2.94 0 5.392-2.74 5.392-6.194 0-3.455-2.452-6.194-5.392-6.194-2.94 0-5.391 2.74-5.391 6.194 0 3.455 2.452 6.194 5.391 6.194zm0 1.548C3.104 15.742 0 12.276 0 8S3.104.258 6.932.258c3.83 0 6.933 3.466 6.933 7.742s-3.104 7.742-6.933 7.742zM17.973.258h4.365c2.269 0 4.108 1.849 4.108 4.13v1.031c0 2.28-1.84 4.13-4.108 4.13h-4.365v6.193h-1.54V.258h1.54zm0 1.548V8h4.365a2.574 2.574 0 0 0 2.567-2.58V4.386c0-1.425-1.15-2.58-2.567-2.58h-4.365zM59.054.258h3.595c2.268 0 4.108 1.849 4.108 4.13v1.29c0 2.28-1.84 4.128-4.108 4.128h-3.595v5.936h-2.568V.258h2.568zm0 2.58v4.388h3.595c.85 0 1.54-.693 1.54-1.549v-1.29c0-.855-.69-1.548-1.54-1.548h-3.595zM38.257 1.806h-7.96v5.162h7.96v1.548h-7.96v5.678h7.96v1.548h-9.5V.258h9.5zM51.608 5.352V.258h1.54v15.484h-1.54V7.089l-8.73-4.47v13.123h-1.54V.258h1.54v.623zM68.297.258h2.568v10.323l-2.568-1.29z"/>
        <path fill="#F7B236" d="M70.865 15.742h-2.568v-3.613l2.568 1.226z"/>
    </g>
</svg>
