<svg xmlns="http://www.w3.org/2000/svg" width="178" height="24" viewBox="0 0 178 24">
    <g fill="none" fill-rule="evenodd">
        <path fill="#5628B4" d="M92.286 10.946h5.364c.5 0 .935-.093 1.31-.28.374-.185.68-.44.92-.76.239-.32.415-.687.53-1.102.114-.414.171-.838.171-1.273 0-.455-.057-.89-.171-1.304a3.123 3.123 0 0 0-.53-1.086 2.598 2.598 0 0 0-.92-.745c-.375-.187-.81-.28-1.31-.28h-5.364v6.83zM97.65.05c1.102 0 2.074.186 2.916.56.842.372 1.543.89 2.105 1.551a6.862 6.862 0 0 1 1.278 2.329c.292.89.437 1.842.437 2.856 0 .993-.136 1.94-.405 2.84-.27.9-.687 1.687-1.248 2.36a6.172 6.172 0 0 1-2.105 1.614c-.842.404-1.835.606-2.978.606h-5.364v9.054h-4.085V.05h9.449zM106.6 13.956V.049h4.084v15.906zM129.894.05v4.066h-6.58v19.702h-4.116V4.116h-6.549V.049zM135.944 10.636h4.927c1.06 0 1.829-.321 2.308-.963.478-.641.717-1.397.717-2.266 0-.455-.058-.88-.172-1.273a2.854 2.854 0 0 0-.545-1.04c-.25-.3-.567-.538-.952-.714-.385-.176-.836-.264-1.356-.264h-4.927v6.52zM141.495.049c1.122 0 2.09.187 2.9.56a5.84 5.84 0 0 1 2.027 1.505c.54.631.94 1.36 1.2 2.188.26.828.39 1.688.39 2.577 0 1.325-.28 2.551-.842 3.679-.56 1.128-1.455 1.971-2.682 2.53l5.655 10.728-4.583.003-5.032-10.141h-4.584v10.141h-4.085V.05h9.636zM177.575.05l-7.577 11.61 7.807 12.159h-4.613l-5.845-9.117-5.844 9.116h-4.147l7.87-12.438L157.991.05h4.584l5.302 8.288L173.459.05zM155.779.05v23.766l-4.085.004V.05z"/>
        <path fill="#F7B236" d="M110.685 20.127v3.692H106.6v-5.69z"/>
        <path fill="#5628B4" d="M10.7 2.32c-1.287 0-2.447.255-3.48.763A7.64 7.64 0 0 0 4.615 5.16c-.705.875-1.247 1.897-1.625 3.067a12.09 12.09 0 0 0-.567 3.739c0 1.323.19 2.575.567 3.754.378 1.18.925 2.209 1.64 3.083a7.818 7.818 0 0 0 2.607 2.076c1.022.508 2.187.763 3.495.763 1.288 0 2.442-.255 3.465-.763a8.09 8.09 0 0 0 2.621-2.06c.725-.865 1.278-1.882 1.656-3.053.378-1.17.567-2.427.567-3.77s-.19-2.598-.567-3.77c-.378-1.17-.93-2.191-1.656-3.066a7.953 7.953 0 0 0-2.636-2.076c-1.033-.508-2.193-.763-3.48-.763m0-2.32c1.737 0 3.275.336 4.614 1.008a10.16 10.16 0 0 1 3.373 2.686c.909 1.119 1.599 2.4 2.069 3.845.47 1.445.705 2.93.705 4.457 0 1.526-.235 3.006-.705 4.44a11.882 11.882 0 0 1-2.07 3.831 10.155 10.155 0 0 1-3.372 2.686c-1.339.672-2.877 1.008-4.614 1.008-1.758 0-3.302-.34-4.63-1.023a10.205 10.205 0 0 1-3.343-2.7A11.774 11.774 0 0 1 .69 16.39a14.508 14.508 0 0 1 .015-8.882c.47-1.445 1.16-2.722 2.07-3.83.909-1.11 2.028-2 3.357-2.671C7.46.336 8.983 0 10.7 0M27.993 12.087h6.99c.695 0 1.293-.137 1.794-.412.5-.274.914-.63 1.242-1.068a4.63 4.63 0 0 0 .736-1.511 6.395 6.395 0 0 0 0-3.51 4.637 4.637 0 0 0-.736-1.511 3.642 3.642 0 0 0-1.257-1.053c-.512-.264-1.115-.397-1.81-.397h-6.96v9.462zM34.983.305c1.043 0 1.957.188 2.745.565.786.377 1.44.885 1.961 1.526A6.69 6.69 0 0 1 40.87 4.61a8.71 8.71 0 0 1 .398 2.656c0 .895-.127 1.765-.383 2.61a6.786 6.786 0 0 1-1.15 2.243 5.498 5.498 0 0 1-1.962 1.556c-.797.387-1.727.58-2.79.58h-6.99v9.401H25.54V.305h9.443zM59.91.306v2.319H47.309v7.936h12.479v2.228h-12.48v8.546h12.663v2.32H44.887V.305zM80.698 7.795V.305h2.36v23.656l-2.394-.003.034-13.881-14.043-6.588v20.166h-2.36V0z"/>
    </g>
</svg>
